<?xml version="1.0" encoding="UTF-8" standalone="no"?>
<!-- Created with Inkscape (http://www.inkscape.org/) -->

<svg
   width="210mm"
   height="297mm"
   viewBox="0 0 210 297"
   version="1.1"
   id="svg1"
   xml:space="preserve"
   xmlns:inkscape="http://www.inkscape.org/namespaces/inkscape"
   xmlns:sodipodi="http://sodipodi.sourceforge.net/DTD/sodipodi-0.dtd"
   xmlns:xlink="http://www.w3.org/1999/xlink"
   xmlns="http://www.w3.org/2000/svg"
   xmlns:svg="http://www.w3.org/2000/svg"><sodipodi:namedview
     id="namedview1"
     pagecolor="#ffffff"
     bordercolor="#000000"
     borderopacity="0.25"
     inkscape:showpageshadow="2"
     inkscape:pageopacity="0.0"
     inkscape:pagecheckerboard="0"
     inkscape:deskcolor="#d1d1d1"
     inkscape:document-units="mm" /><defs
     id="defs1"><linearGradient
       id="linearGradient4"
       inkscape:collect="always"><stop
         style="stop-color:#b835af;stop-opacity:1;"
         offset="0"
         id="stop4" /><stop
         style="stop-color:#ff49f2;stop-opacity:1;"
         offset="1"
         id="stop5" /></linearGradient><linearGradient
       id="linearGradient2"
       inkscape:collect="always"><stop
         style="stop-color:#ff0000;stop-opacity:1;"
         offset="0"
         id="stop2" /><stop
         style="stop-color:#ff885d;stop-opacity:1;"
         offset="1"
         id="stop3" /></linearGradient><linearGradient
       inkscape:collect="always"
       xlink:href="#linearGradient2"
       id="linearGradient3"
       x1="26.423367"
       y1="59.452576"
       x2="216.8918"
       y2="255.70111"
       gradientUnits="userSpaceOnUse" /><linearGradient
       inkscape:collect="always"
       xlink:href="#linearGradient4"
       id="linearGradient5"
       x1="148.63144"
       y1="181.93588"
       x2="-19.817524"
       y2="3.5781674"
       gradientUnits="userSpaceOnUse" /></defs><g
     inkscape:label="圖層 1"
     inkscape:groupmode="layer"
     id="layer1"><path
       style="fill:url(#linearGradient3);fill-opacity:1;stroke:#bdbdbd;stroke-width:1;stroke-dasharray:none;stroke-opacity:0.819608"
       d="m 21.06483,212.98373 c -2.148648,-3.91758 -0.963319,-12.03845 -0.02463,-16.01756 1.800031,-7.63088 4.847195,-13.20231 10.309178,-18.84923 2.957243,-3.05737 5.929121,-5.13876 13.135255,-9.19941 2.823573,-1.59109 5.137579,-3.0773 5.142213,-3.30269 0.0043,-0.22539 -3.124612,-2.27626 -6.953899,-4.55745 -11.098892,-6.61191 -15.160308,-10.41502 -18.759392,-17.56629 -2.060394,-4.09398 -2.931943,-7.43218 -3.592567,-13.76037 -1.785408,-17.10296 2.231678,-30.031348 16.545801,-38.94062 8.188162,-5.096398 69.183581,-37.413573 74.397221,-40.043332 15.53877,-0.332939 12.82083,-0.01765 24.14131,-0.0491 15.44968,1.534505 28.26572,9.593598 34.0283,21.99012 2.22324,4.782645 3.28061,6.71441 3.25798,12.612977 -0.0165,4.292719 0.0843,7.442668 0.0386,11.017281 -0.0238,1.858311 -1.27326,3.998764 -2.28995,5.839584 -2.32277,4.2056 -10.9566,5.73402 -14.63934,9.40364 -3.46959,3.45723 -4.8197,4.94306 -13.12058,9.82618 -3.14839,1.85211 -5.71592,3.48429 -5.70565,3.6271 0.0108,0.14287 3.21178,2.15177 7.1144,4.46436 7.95937,4.71649 11.80652,7.89667 15.37781,12.71176 2.67707,3.60947 9.80167,6.77559 11.21179,11.39149 0.97534,3.19272 0.5341,5.5973 0.5341,11.47145 0,5.82797 -0.0939,9.36328 -1.04455,12.54218 -3.0364,10.15364 -13.30174,18.03069 -22.32185,23.62146 -6.80253,4.21627 -66.993427,27.57591 -71.895567,27.70368 -12.620261,0.32893 -26.167096,0.18411 -26.56957,0.17484 -9.497075,-0.21877 -18.526729,1.73723 -28.316413,-16.11205 z m 80.47974,-49.55384 c 13.87429,-8.036 25.27191,-17.71756 25.52337,-17.97333 0.35362,-0.35967 -5.0566,-4.69364 -24.89351,-16.09972 -14.106466,-8.11111 -27.58396,-13.84234 -27.763317,-13.91349 -0.179346,-0.0712 -2.321617,13.499 -2.321617,30.0718 0,16.57278 0.180233,30.46931 0.340322,30.37055 0.160089,-0.0987 15.240472,-4.41983 29.114752,-12.45581 z"
       id="path1"
       sodipodi:nodetypes="scssccscsccsssssscssssssssssscscss" /><path
       style="fill:url(#linearGradient5);fill-opacity:1;stroke:#bdbdbd;stroke-width:1;stroke-dasharray:none;stroke-opacity:1"
       d="m 59.400243,194.6541 c -11.52885,-0.75254 -21.3367,-7.35218 -26.19623,-17.62727 -1.42594,-3.01504 -2.36422,-6.19924 -2.74692,-9.32221 -0.19596,-1.59904 -0.29206,-11.65912 -0.29256,-30.62552 l -7.5e-4,-28.24426 h 67.60104 67.601037 v 28.93721 c 0,31.78299 0.031,31.09165 -1.61565,36.01683 -3.44274,10.29731 -11.89756,17.78437 -22.90609,20.28422 -2.59805,0.58997 -2.59805,0.58997 -41.359507,0.62866 -21.3188,0.0213 -39.35677,-1.7e-4 -40.08437,-0.0477 z m 41.230077,-33.02873 c 10.58066,-5.95657 19.6104,-11.1927 20.06609,-11.63585 2.5048,-2.43585 2.32558,-7.18895 -0.34739,-9.21341 -0.4886,-0.37006 -9.40134,-5.47581 -19.80607,-11.34612 -18.917707,-10.67328 -18.917707,-10.67328 -21.210027,-10.67328 -2.12588,0 -2.37532,0.0583 -3.43567,0.80358 -1.31184,0.92201 -2.21961,2.15378 -2.60215,3.53092 -0.16806,0.60504 -0.26641,8.90218 -0.26735,22.55359 -0.002,23.43904 -0.0409,22.76961 1.45153,24.72628 0.35688,0.46789 1.27728,1.16861 2.04533,1.55716 1.17859,0.59622 1.66728,0.69246 3.1323,0.61684 1.73584,-0.0896 1.73584,-0.0896 20.973407,-10.91971 z M 30.247463,91.041613 c 0.0949,-3.07712 0.32092,-5.82636 0.5711,-6.94531 1.60195,-7.16507 5.40095,-13.935147 10.78078,-18.239537 1.1937,-0.955077 2.23969,-1.736507 2.32442,-1.736507 0.0847,0 0.92042,1.041797 1.85708,2.315107 0.93665,1.27331 6.14037,8.831307 11.56381,16.148807 5.42344,7.31749 9.86079,13.35991 9.86079,13.4276 0,0.0677 -8.35087,0.12307 -18.55749,0.12307 h -18.5575 z m 42.82962,-8.46667 c -5.5256,-7.45794 -11.54751,-15.57948 -13.38202,-18.047864 -2.94433,-3.961669 -3.28131,-4.520165 -2.87349,-4.762499 0.30445,-0.180907 7.04875,-0.301731 19.77658,-0.354296 l 19.31459,-0.07977 3.03387,4.180809 c 1.668627,2.299444 7.631507,10.44035 13.250847,18.0909 5.61933,7.65054 10.30354,14.05015 10.40934,14.22135 0.14683,0.23758 -4.50409,0.31127 -19.6454,0.31127 H 83.123623 Z m 52.005967,-4.67306 c -7.38518,-10.02469 -13.4276,-18.298127 -13.4276,-18.385416 0,-0.263728 21.86039,-0.169579 25.21792,0.108609 3.21901,0.266711 6.31983,0.933708 8.72765,1.877347 8.61292,3.375449 15.06897,10.05863 18.11994,18.75742 1.1894,3.39117 1.6449,6.59118 1.6449,11.556 v 4.319 l -13.4276,-0.003 -13.42761,-0.003 z"
       id="path2"
       sodipodi:nodetypes="cssscccssssccssssssscssssccssssssccsssscsssscscssssscccc" /><path
       id="rect5"
       style="stroke:#bdbdbd;stroke-width:1.20066"
       transform="matrix(0.72013691,-0.69383199,0.65933557,0.75184879,0,0)"
       d="m -26.320882,42.657421 h 1.145462 c 4.512231,0 8.216793,3.636534 8.14482,8.14482 l -1.878883,117.690089 1.780866,117.05255 c 0.06869,4.51494 -3.632589,8.14482 -8.14482,8.14482 h -1.145462 c -4.51223,0 -8.148577,-3.63276 -8.14482,-8.14482 l 0.09802,-117.7439 V 50.802241 c 0,-4.51223 3.63259,-8.14482 8.14482,-8.14482 z"
       sodipodi:nodetypes="ssscsssscss" /><path
       id="path5"
       style="stroke:#bdbdbd;stroke-width:1.2"
       d="m 9.170921,50.334005 0.82489,-0.79475 c 3.24942,-3.13074 8.31491,-2.96696 11.23555,0.47253 l 76.244209,89.788785 78.45938,86.77019 c 3.02632,3.3469 2.75421,8.64408 -0.49522,11.77481 l -0.82489,0.79476 c -3.24942,3.13073 -8.2633,2.92246 -11.23555,-0.47254 L 85.817133,150.07418 8.675701,62.108815 c -2.97507,-3.39251 -2.75421,-8.64408 0.49522,-11.77481 z"
       sodipodi:nodetypes="ssscsssscss" /></g></svg>
